<svg xmlns="http://www.w3.org/2000/svg" width="16" height="14.649" viewBox="0 0 16 14.649">
  <path id="Trazado_53614" data-name="Trazado 53614" d="M36.46,31.387l-.049.075a.633.633,0,0,0,.106.776l5.712,5.573H29.167l-.079,0a.657.657,0,0,0-.588.643l0,.075a.66.66,0,0,0,.662.572H42.229l-5.713,5.574-.056.063a.636.636,0,0,0,.056.851.681.681,0,0,0,.945,0l6.845-6.677.049-.054.057-.082.033-.063.031-.087.01-.04.011-.072,0-.053a.638.638,0,0,0-.028-.194l-.03-.077-.043-.079A.66.66,0,0,0,44.306,38l-6.845-6.677-.074-.063a.682.682,0,0,0-.871.063Z" transform="translate(-28.5 -31.133)"/>
</svg>
