<svg xmlns="http://www.w3.org/2000/svg" width="20.167" height="22.042" viewBox="0 0 20.167 22.042">
  <path id="bag" d="M12.083,1a3.861,3.861,0,0,1,3.771,3.945,4.142,4.142,0,0,1-.067.745H21.5a.68.68,0,0,1,.655.545l.015.1L20.822,22.276a.7.7,0,0,1-.58.759l-.089.006H4.015a.687.687,0,0,1-.672-.672l0-.094L2,6.331A.691.691,0,0,1,2.576,5.7L2.67,5.69h5.71a4.141,4.141,0,0,1-.067-.745A3.861,3.861,0,0,1,12.083,1Zm8.8,6.1H3.286L4.749,21.635H19.417Zm-8.8-4.69A2.484,2.484,0,0,0,9.657,4.945a2.647,2.647,0,0,0,.106.745H14.4a2.644,2.644,0,0,0,.106-.745A2.484,2.484,0,0,0,12.083,2.407Z" transform="translate(-2 -1)"/>
</svg>
