<svg xmlns="http://www.w3.org/2000/svg" width="24" height="24" viewBox="0 0 24 24">
  <g id="Envío" transform="translate(23154 20016)">
    <rect id="Rectángulo_152254" data-name="Rectángulo 152254" width="24" height="24" transform="translate(-23154 -20016)" fill="none"/>
    <path id="shippingTruck" d="M2.25,5.5a.75.75,0,0,0-.75.75v7.5a.75.75,0,0,1-1.5,0V6.25A2.25,2.25,0,0,1,2.25,4h12a2.25,2.25,0,0,1,2.121,1.5H18.75A5.25,5.25,0,0,1,24,10.75v6A2.25,2.25,0,0,1,21.75,19H21a.75.75,0,0,1,0-1.5h.75a.75.75,0,0,0,.75-.75V13H20.25A2.25,2.25,0,0,1,18,10.75V7H16.5v5.25a.75.75,0,0,1-1.5,0v-6a.75.75,0,0,0-.75-.75ZM19.5,7.076V10.75a.75.75,0,0,0,.75.75H22.5v-.75a3.75,3.75,0,0,0-3-3.674ZM4.5,16a1.5,1.5,0,1,0,1.061.439A1.5,1.5,0,0,0,4.5,16Zm-2.121-.621A3,3,0,1,1,1.5,17.5,3,3,0,0,1,2.379,15.379ZM16.5,16a1.5,1.5,0,1,0,1.061.439A1.5,1.5,0,0,0,16.5,16Zm-2.121-.621A3,3,0,1,1,13.5,17.5,3,3,0,0,1,14.379,15.379ZM8.25,18.25A.75.75,0,0,1,9,17.5h3A.75.75,0,0,1,12,19H9A.75.75,0,0,1,8.25,18.25Z" transform="translate(-23154 -20016.25)" fill-rule="evenodd"/>
  </g>
</svg>
