<svg xmlns="http://www.w3.org/2000/svg" width="24" height="24" viewBox="0 0 24 24">
  <g id="inicio" transform="translate(23506 20016)">
    <rect id="Rectángulo_152245" data-name="Rectángulo 152245" width="24" height="24" transform="translate(-23506 -20016)" fill="none"/>
    <path id="home" d="M11.455.264,2.5,7.622A1.384,1.384,0,0,0,2,8.691V22.133a1.366,1.366,0,0,0,1.326,1.361H9.371l.127-.007a1.373,1.373,0,0,0,1.2-1.354V15.549H13.8v6.584a1.366,1.366,0,0,0,1.326,1.361h6.045A1.366,1.366,0,0,0,22.5,22.133V8.689A1.387,1.387,0,0,0,22,7.621L13.077.289A1.328,1.328,0,0,0,11.455.264Zm.8,1.284L21,8.741V21.994H15.3V14.8a.75.75,0,0,0-.75-.75H9.947l-.1.007A.75.75,0,0,0,9.2,14.8v7.194H3.5V8.74Z" transform="translate(-23506.25 -20015.746)" fill-rule="evenodd"/>
  </g>
</svg>
