<svg xmlns="http://www.w3.org/2000/svg" width="24" height="24.001" viewBox="0 0 24 24.001">
  <g id="Comparar" transform="translate(13324 -10907)">
    <rect id="Rectángulo_151643" data-name="Rectángulo 151643" width="24" height="24.001" transform="translate(-13324 10907)" fill="#fff" opacity="0"/>
    <path id="Trazado_53820" data-name="Trazado 53820" d="M171.6-875.508h-5.752a1.789,1.789,0,0,1-1.315-.537A1.789,1.789,0,0,1,164-877.36v-14.5a1.789,1.789,0,0,1,.537-1.315,1.789,1.789,0,0,1,1.315-.537H171.6v-2.149a.728.728,0,0,1,.213-.534.716.716,0,0,1,.529-.215.736.736,0,0,1,.535.215.718.718,0,0,1,.219.534v22.5a.729.729,0,0,1-.213.534.716.716,0,0,1-.53.215.736.736,0,0,1-.535-.215.718.718,0,0,1-.22-.534Zm-6.078-1.5H171.6v-7.225Zm9.649,1.5v-8.036l5.53,6.567V-891.86a.338.338,0,0,0-.111-.244.338.338,0,0,0-.244-.111h-5.176v-1.5h5.176a1.789,1.789,0,0,1,1.315.537,1.789,1.789,0,0,1,.537,1.315v14.5a1.789,1.789,0,0,1-.537,1.315,1.789,1.789,0,0,1-1.315.537Z" transform="translate(-13485 11803.609)"/>
  </g>
</svg>
