<svg xmlns="http://www.w3.org/2000/svg" width="24" height="24" viewBox="0 0 24 24">
  <g id="Compartir" transform="translate(23110 20069)">
    <rect id="Rectángulo_152228" data-name="Rectángulo 152228" width="24" height="24" transform="translate(-23110 -20069)" fill="none"/>
    <path id="shareGoogle" d="M18.75,1.5a4.5,4.5,0,1,1-3.864,6.807L9.658,10.34a4.534,4.534,0,0,1-.1,2.225l5.561,2.78a4.48,4.48,0,1,1-.671,1.341l-5.562-2.78a4.5,4.5,0,1,1,.232-4.962l5.227-2.033A4.5,4.5,0,0,1,18.75,1.5Zm0,13.5a3,3,0,1,0,3,3A3,3,0,0,0,18.75,15ZM5.25,8.25a3,3,0,1,0,3,3A3,3,0,0,0,5.25,8.25ZM18.75,3a3,3,0,1,0,3,3A3,3,0,0,0,18.75,3Z" transform="translate(-23110 -20069)"/>
  </g>
</svg>
