<svg xmlns="http://www.w3.org/2000/svg" width="24" height="24" viewBox="0 0 24 24">
  <g id="Filtros" transform="translate(24474 20016)">
    <rect id="Rectángulo_152252" data-name="Rectángulo 152252" width="24" height="24" transform="translate(-24474 -20016)" fill="none"/>
    <path id="filters" d="M9,13.25a4.251,4.251,0,0,1,4.184,3.5H22.5a.75.75,0,0,1,.1,1.493l-.1.007H13.184a4.251,4.251,0,0,1-8.368,0H1.5a.75.75,0,0,1-.1-1.493l.1-.007H4.816A4.251,4.251,0,0,1,9,13.25Zm0,1.5a2.75,2.75,0,1,0,2.75,2.75A2.75,2.75,0,0,0,9,14.75Zm6.5-12.5a4.251,4.251,0,0,1,4.184,3.5H22.5a.75.75,0,0,1,.1,1.493l-.1.007H19.684a4.251,4.251,0,0,1-8.368,0H1.5a.75.75,0,0,1-.1-1.493l.1-.007h9.816A4.251,4.251,0,0,1,15.5,2.25Zm0,1.5A2.75,2.75,0,1,0,18.25,6.5,2.75,2.75,0,0,0,15.5,3.75Z" transform="translate(-24474 -20016)"/>
  </g>
</svg>
