<svg xmlns="http://www.w3.org/2000/svg" width="24" height="24" viewBox="0 0 24 24">
  <g id="Grupo_198990" data-name="Grupo 198990" transform="translate(16788 -12050)">
    <path id="vegan" d="M1,1A15.063,15.063,0,0,1,3.938,2.2a21.056,21.056,0,0,1,6.5,6.125,12.44,12.44,0,0,1,1.24,2.424A14.822,14.822,0,0,1,15,7.333c3.8-2.769,7.032-2.032,7.167-2l.792.191-.508.637a20.934,20.934,0,0,0-3.23,6.475,18.145,18.145,0,0,1-7.5,10.229l-.515-.194c-.087-.033-8.749-3.4-8.5-12.38a21.613,21.613,0,0,0-.867-7.114A16.406,16.406,0,0,0,1,1ZM21.1,6.265A9.114,9.114,0,0,0,15.61,8.171a12.82,12.82,0,0,0-3.5,3.9,16.184,16.184,0,0,1,.508,2.951,21.237,21.237,0,0,1,4.139-4.77,77.684,77.684,0,0,0-4.089,6.982,22.239,22.239,0,0,1-.519,4.069,17.816,17.816,0,0,0,6.073-8.956A22.255,22.255,0,0,1,21.1,6.265ZM2.675,2.653a18.565,18.565,0,0,1,1.07,7.668A11.8,11.8,0,0,0,10.2,21.041a32.117,32.117,0,0,0-1.773-7.477c-.239-.633-.61-1.51-.989-2.381l-.19-.434C6.616,9.314,6.017,8.014,6.017,8.014A19.56,19.56,0,0,1,9.4,13.177,32.721,32.721,0,0,1,11.209,20.7C11.692,18.277,12.293,13,9.577,8.9A21.783,21.783,0,0,0,2.675,2.653Z" transform="translate(-16787.5 12049.5)" stroke="#000" stroke-width="0.5"/>
    <g id="Rectángulo_151555" data-name="Rectángulo 151555" transform="translate(-16788 12050)" fill="#fff" stroke="#707070" stroke-width="1" opacity="0">
      <rect width="24" height="24" stroke="none"/>
      <rect x="0.5" y="0.5" width="23" height="23" fill="none"/>
    </g>
  </g>
</svg>
