<svg xmlns="http://www.w3.org/2000/svg" width="16" height="16" viewBox="0 0 16 16">
  <g id="Grupo_198887" data-name="Grupo 198887" transform="translate(21898 -10470)">
    <rect id="Rectángulo_151513" data-name="Rectángulo 151513" width="16" height="16" transform="translate(-21898 10470)" fill="#fff" opacity="0"/>
    <path id="add" d="M8.672.754a.667.667,0,0,0-.589.662V8.083H1.417l-.078,0A.669.669,0,0,0,.75,8.75l0,.078a.667.667,0,0,0,.662.589H8.083v6.667l0,.078a.669.669,0,0,0,.662.588l.078,0a.667.667,0,0,0,.589-.662V9.416h6.667l.078,0a.669.669,0,0,0,.588-.662l0-.078a.667.667,0,0,0-.662-.589H9.416V1.417l0-.078A.669.669,0,0,0,8.75.75Z" transform="translate(-21898.75 10469.25)"/>
  </g>
</svg>
