<svg id="Logo_desktop" data-name="Logo desktop" xmlns="http://www.w3.org/2000/svg" width="96" height="40" viewBox="0 0 96 40">
  <g id="Base_Brand_Logos_Ulta-Beauty_Ulta-Beauty" data-name="Base/Brand/Logos/Ulta-Beauty/Ulta-Beauty" transform="translate(0 0)">
    <path id="Logo-Shape" d="M8.905,1.29l.006.345A17.2,17.2,0,0,0,1.479,15.857c.015,10.278,15.823,21.4,38.78,21.4a77.813,77.813,0,0,0,23.33-3.358H64A53.757,53.757,0,0,1,38.86,40C16.018,40,0,29.881,0,16.19,0,10.155,3.295,5.219,8.905,1.29ZM40.043,27.1c.937,0,1.576.33,1.576,1.1s-.761,1.092-1.245,1.185l-.025,0c.473.024,1.4.339,1.4,1.189,0,1.014-.888,1.421-1.819,1.421H38c.045-.627.064-1.189.064-1.968l0-.963c0-.8-.018-1.347-.064-1.971Zm34.457,0c-.045.413-.1,1.408-.1,2.619A1.991,1.991,0,0,1,72.117,32c-1.322-.006-2.337-.53-2.337-1.839V28.223c0-.563,0-.93-.03-1.126.208.02.425.035.633.035a3.843,3.843,0,0,0,.633-.035,21.55,21.55,0,0,0-.105,2.439c0,1.7.542,1.976,1.548,1.976,1.065,0,1.276-.889,1.314-1.962l0-.081q0-.061,0-.122v-.082q0-.124,0-.249c0-.64-.021-1.275-.06-1.918a2.548,2.548,0,0,0,.395.035A2.433,2.433,0,0,0,74.5,27.1Zm18.409,0c.354.686.928,1.763,1.159,2.111l.01.014.081-.12a13.728,13.728,0,0,0,1.1-2.005,6.12,6.12,0,0,0,.738,0c-.343.532-1.149,1.889-1.651,2.786v.633h0A10.522,10.522,0,0,0,94.429,32H93.09c.024-.454.095-.93.095-1.369v-.662h0c-.16-.28-.351-.609-.547-.945l-.066-.112h0l-.066-.112h0l-.066-.112c-.4-.69-.794-1.345-.94-1.59Zm-31.221,0c.186.477.393,1,.607,1.532l.081.2c.486,1.2,1,2.407,1.374,3.171H62.465c-.156-.478-.326-.967-.511-1.445H60.221A12.428,12.428,0,0,0,59.716,32,5.8,5.8,0,0,0,59,32c.212-.459.683-1.515,1.165-2.635l.062-.143c.318-.742.637-1.5.884-2.125A3.626,3.626,0,0,0,61.688,27.1Zm-10.324.009h.248c.329,0,.577,0,.638-.009a3.58,3.58,0,0,0,0,.622c-.187-.012-.409-.02-.634-.025l-.1,0c-.337-.007-.668-.008-.884-.008h-.191c-.036.521,0,.982,0,1.489.674,0,1.171-.027,1.757-.057a2.613,2.613,0,0,0,0,.613c-.6-.042-1.164-.063-1.757-.063v.911c0,.316,0,.548.021.831a16.152,16.152,0,0,0,1.775-.036,3.645,3.645,0,0,0,0,.628H49.25c.042-.628.06-1.191.06-1.971l.009-.959c0-.8-.018-1.349-.06-1.974h.067C49.683,27.1,50.638,27.105,51.364,27.106ZM85,27.1a2.673,2.673,0,0,0,0,.622c-.389-.044-.983-.05-1.32-.05H83.6v2.37c0,.791.018,1.336.064,1.961H82.39c.045-.625.061-1.185.061-1.961l0-1.784a3.864,3.864,0,0,0-.015-.593h-.07A12.989,12.989,0,0,0,81,27.719a2.673,2.673,0,0,0,0-.622c.332.01,1.085.015,1.86.015h.31C83.943,27.112,84.686,27.106,85,27.1ZM39.574,29.419H39.25v2.065h.419c.445,0,.831-.367.831-1.026C40.506,29.768,40.179,29.419,39.574,29.419Zm21.57-1.032c-.278.589-.53,1.188-.769,1.806h1.5C61.639,29.56,61.406,28.977,61.144,28.387Zm-21.48-1.029a1.99,1.99,0,0,0-.384.025c-.015.364-.03.774-.03,1.023v.755h.35a.869.869,0,0,0,.644-.266.89.89,0,0,0,.248-.658.779.779,0,0,0-.2-.642A.759.759,0,0,0,39.664,27.358ZM34.75.258l-.109,1.72c-.092,1.572-.167,4.262-.227,7l-.007.322c-.054,2.526-.1,5.059-.127,6.761-.071,4.227-1.3,6.166-3.672,7.667a11.8,11.8,0,0,1-6.051,1.56c-4.323,0-9.513-1.365-10.3-6.921a18.624,18.624,0,0,1-.071-1.9V6.724C14.183,4.9,14.109,2.1,14,.273a37.164,37.164,0,0,0,4.864,0L18.755,3c-.1,2.483-.106,5.544-.106,8.394v1.185c0,5.416.092,6.67,1.115,8.053,1.044,1.411,2.991,2.182,5.512,2.182a6.137,6.137,0,0,0,6.015-3.687c.3-.789.467-1.9.467-4.855,0-4.661-.036-9.354-.323-14.012A26.257,26.257,0,0,0,34.75.258Zm46.906,0c1.739,4.762,3.9,9.775,5.2,12.784,1.373,3.113,3.756,8.517,5.394,11.99-.262-.016-1.388-.025-2.56-.025H89.4c-1.174,0-2.327.009-2.638.025L85.23,21.058l-1.519-3.794c-.76-.034-2.58-.052-4.408-.053h-.224c-1.827,0-3.62.018-4.327.053q-.193.458-.385.923l-.109.266a68.483,68.483,0,0,0-2.4,6.58,25.684,25.684,0,0,0-3.36,0l4.194-9.238C76.342,7.706,78.433,3.053,79.3.258Zm-36.562,0c-.253,5.45-.364,10-.364,15.563,0,2.527.069,4.876.111,6.859h.941A80.321,80.321,0,0,0,54,22.355a9.6,9.6,0,0,0,0,2.677c-.917-.038-2.142-.092-3.386-.137l-.287-.01c-1.2-.042-2.392-.074-3.326-.074-2.345,0-4.323.071-7,.221,0-.284.061-2.441.124-4.673l.008-.274c.063-2.235.124-4.473.124-4.915V9.8q0-.022,0-.043V9.629c0-.219,0-.418,0-.613V8.942c0-.049,0-.1,0-.146V8.723c-.009-.8-.033-1.682-.1-3.77-.018-.351-.042-1.229-.067-2.141l-.006-.235C40.047,1.584,40.02.6,40,.258A27.15,27.15,0,0,0,45.094.258ZM71.25,0a13.482,13.482,0,0,0-.038,2.945c-2.121-.218-4.672-.255-7.153-.255-.035,1.3-.074,2.672-.074,4.041V20.083a38.57,38.57,0,0,0,.254,4.949,32.874,32.874,0,0,0-5.071,0c.145-2.743.36-5.522.36-8.268L59.493,6.7c0-1.335-.035-2.6-.074-4.007H57.611c-.218,0-1.838.033-3.436.109l-.143.007h0l-.143.007c-.688.035-1.357.079-1.889.131A12.76,12.76,0,0,0,52.089.058c2.606.169,6.12.18,8.822.181h.7C64.593.239,67.812.181,71.25,0Zm7.909,6.194L75.5,14.869c1.251.033,2.467.1,3.718.1h.226c.7,0,1.695-.01,3.056-.1ZM89.509,0A1.526,1.526,0,0,1,91,1.558a1.5,1.5,0,1,1-3-.019A1.564,1.564,0,0,1,88.443.444,1.467,1.467,0,0,1,89.509,0ZM89.5.258a1.257,1.257,0,0,0-1.249,1.265,1.274,1.274,0,0,0,.35.923,1.242,1.242,0,0,0,.9.386v.006a1.242,1.242,0,0,0,.9-.388,1.274,1.274,0,0,0,.348-.927A1.257,1.257,0,0,0,89.5.258Zm.009.387c.391,0,.579.169.579.516a.493.493,0,0,1-.118.349.4.4,0,0,1-.313.142l.469.8h-.272L89.4,1.671h-.269v.781h-.255L88.875.645ZM89.561.9h-.436v.516h.286c.243,0,.464,0,.464-.267C89.875.921,89.722.9,89.561.9Z" transform="translate(0 0)" fill="#f26b1c"/>
  </g>
</svg>
