<svg xmlns="http://www.w3.org/2000/svg" width="25.635" height="28" viewBox="0 0 25.635 28">
  <path id="Trazado_53694" data-name="Trazado 53694" d="M42.43,31.577l-.087.13a1.108,1.108,0,0,0,.185,1.358l10,9.752H29.667l-.137.008A1.149,1.149,0,0,0,28.5,43.951l.008.132a1.155,1.155,0,0,0,1.159,1h22.86l-10,9.754-.1.11a1.113,1.113,0,0,0,.1,1.488,1.192,1.192,0,0,0,1.654,0L56.16,44.75l.086-.094.1-.143L56.4,44.4l.055-.152.018-.07.019-.125.005-.092a1.116,1.116,0,0,0-.05-.34l-.053-.135-.076-.138a1.154,1.154,0,0,0-.161-.2L44.183,31.467l-.13-.11a1.193,1.193,0,0,0-1.524.11Z" transform="translate(-31.133 56.5) rotate(-90)" fill="#fff"/>
</svg>
