<svg xmlns="http://www.w3.org/2000/svg" width="16" height="16" viewBox="0 0 16 16">
  <g id="Ayuda" transform="translate(-935 -3725)">
    <rect id="Rectángulo_152372" data-name="Rectángulo 152372" width="16" height="16" transform="translate(935 3725)" fill="none"/>
    <path id="Trazado_89830" data-name="Trazado 89830" d="M127.781-827.735a.654.654,0,0,0,.482-.2.658.658,0,0,0,.2-.483.654.654,0,0,0-.2-.482.659.659,0,0,0-.483-.2.654.654,0,0,0-.482.2.659.659,0,0,0-.2.483.654.654,0,0,0,.2.482A.659.659,0,0,0,127.781-827.735Zm-.021,3.249a7.56,7.56,0,0,1-3.025-.611,7.84,7.84,0,0,1-2.464-1.657,7.827,7.827,0,0,1-1.659-2.462A7.543,7.543,0,0,1,120-832.24a7.56,7.56,0,0,1,.611-3.025,7.84,7.84,0,0,1,1.657-2.464,7.826,7.826,0,0,1,2.462-1.659,7.543,7.543,0,0,1,3.024-.611,7.561,7.561,0,0,1,3.025.611,7.841,7.841,0,0,1,2.464,1.657,7.827,7.827,0,0,1,1.659,2.462,7.543,7.543,0,0,1,.611,3.024,7.56,7.56,0,0,1-.611,3.025,7.84,7.84,0,0,1-1.657,2.464,7.826,7.826,0,0,1-2.462,1.659A7.543,7.543,0,0,1,127.76-824.486Zm0-.862a6.655,6.655,0,0,0,4.891-2,6.655,6.655,0,0,0,2-4.891,6.654,6.654,0,0,0-2-4.891,6.654,6.654,0,0,0-4.891-2,6.654,6.654,0,0,0-4.891,2,6.654,6.654,0,0,0-2,4.891,6.655,6.655,0,0,0,2,4.891A6.655,6.655,0,0,0,127.757-825.348ZM127.757-832.243Zm.053-3.673a1.674,1.674,0,0,1,1.128.406,1.284,1.284,0,0,1,.473,1.016,1.467,1.467,0,0,1-.266.857,4.3,4.3,0,0,1-.616.706,5.261,5.261,0,0,0-.78.884,2.143,2.143,0,0,0-.387,1.062.324.324,0,0,0,.105.283.4.4,0,0,0,.284.114.4.4,0,0,0,.293-.116.517.517,0,0,0,.15-.273,1.84,1.84,0,0,1,.346-.775,6,6,0,0,1,.571-.642,6.152,6.152,0,0,0,.794-.969,2.071,2.071,0,0,0,.347-1.17,1.974,1.974,0,0,0-.72-1.567,2.515,2.515,0,0,0-1.69-.617,2.76,2.76,0,0,0-1.338.336,2.627,2.627,0,0,0-.99.931.406.406,0,0,0-.054.295.334.334,0,0,0,.164.231.453.453,0,0,0,.344.042.622.622,0,0,0,.307-.2,2.62,2.62,0,0,1,.675-.595A1.61,1.61,0,0,1,127.81-835.916Z" transform="translate(815 4565)" fill="#6e6e6e"/>
  </g>
</svg>
