<svg xmlns="http://www.w3.org/2000/svg" xmlns:xlink="http://www.w3.org/1999/xlink" width="16" height="16" viewBox="0 0 16 16">
  <defs>
    <clipPath id="clip-path">
      <rect id="Rectángulo_151881" data-name="Rectángulo 151881" width="16" height="16" fill="#0e3ac9"/>
    </clipPath>
  </defs>
  <g id="Icon_-_UI" data-name="Icon - UI" clip-path="url(#clip-path)">
    <path id="Trazado_53671" data-name="Trazado 53671" d="M8,0A8,8,0,1,1,0,8,8,8,0,0,1,8,0ZM8,1a7,7,0,1,0,7,7A7,7,0,0,0,8,1ZM7.5,6.5a1,1,0,0,1,1,.9l0,.1V10a.5.5,0,0,0,.432.5L9,10.5h.5a.5.5,0,0,1,.068,1l-.068,0H9a1.5,1.5,0,0,1-1.5-1.4l0-.1V7.5H7a.5.5,0,0,1-.068-1L7,6.5ZM7.75,4l.082,0a.75.75,0,1,1-.163,0Z" fill="#0e3ac9"/>
  </g>
</svg>
