<svg xmlns="http://www.w3.org/2000/svg" width="16" height="16" viewBox="0 0 16 16">
    <g id="Grupo_200997" data-name="Grupo 200997" transform="translate(21942 -10488)">
        <rect id="Rectángulo_151500" data-name="Rectángulo 151500" width="16" height="16" transform="translate(-21942 10488)" fill="#fff" opacity="0"/>
        <path id="caretForward" d="M7.2,14.577l5.77-6.115.059-.068a1.051,1.051,0,0,0-.059-1.358L7.2.922,7.148.872a.539.539,0,0,0-.737.049l-.049.06a.605.605,0,0,0,.049.761l5.669,6.007L6.411,13.756l-.047.056a.608.608,0,0,0,.047.765A.538.538,0,0,0,7.2,14.577Z" transform="translate(-21943.75 10488.25)"/>
    </g>
</svg>
