<svg xmlns="http://www.w3.org/2000/svg" width="12.514" height="12.512" viewBox="0 0 12.514 12.512">
  <g id="Estrellas_de_puntuación" data-name="Estrellas de puntuación" transform="translate(0.258 0.25)">
    <path id="Rating-Star--Streamline-Streamline--3.0" d="M7.088,1.428a.283.283,0,0,1,.527,0L9.042,5.433h4.028a.282.282,0,0,1,.264.182.277.277,0,0,1-.081.309L9.887,8.688,11.3,12.88a.278.278,0,0,1-.1.314.284.284,0,0,1-.332,0l-3.51-2.551L3.839,13.193a.284.284,0,0,1-.331,0,.278.278,0,0,1-.1-.312L4.816,8.688,1.45,5.924a.277.277,0,0,1-.081-.309.282.282,0,0,1,.264-.182H5.661Z" transform="translate(-1.352 -1.247)" fill="none" stroke="#000" stroke-linecap="round" stroke-linejoin="round" stroke-width="0.5"/>
  </g>
</svg>
